<?xml version="1.0" encoding="UTF-8"?>
<!DOCTYPE svg PUBLIC "-//W3C//DTD SVG 1.1//EN" "http://www.w3.org/Graphics/SVG/1.1/DTD/svg11.dtd">
<svg xmlns="http://www.w3.org/2000/svg" version="1.1" width="678px" height="368px" style="shape-rendering:geometricPrecision; text-rendering:geometricPrecision; image-rendering:optimizeQuality; fill-rule:evenodd; clip-rule:evenodd" xmlns:xlink="http://www.w3.org/1999/xlink">
<g><path style="opacity:0.11" fill="#ede4ac" d="M 401.5,46.5 C 401.5,46.8333 401.5,47.1667 401.5,47.5C 382.992,47.1698 364.659,47.5032 346.5,48.5C 333.5,48.5 320.5,48.5 307.5,48.5C 338.473,46.9378 369.807,46.2711 401.5,46.5 Z"/></g>
<g><path style="opacity:0.716" fill="#b5a34d" d="M 401.5,47.5 C 403.735,47.2053 405.735,47.5386 407.5,48.5C 387.5,48.5 367.5,48.5 347.5,48.5C 347.334,53.1785 347.501,57.8452 348,62.5C 348.232,63.7375 348.732,64.7375 349.5,65.5C 349.5,66.5 349.5,67.5 349.5,68.5C 349.833,69.8333 350.167,71.1667 350.5,72.5C 349.883,72.3893 349.383,72.056 349,71.5C 346.865,63.9908 346.032,56.3241 346.5,48.5C 364.659,47.5032 382.992,47.1698 401.5,47.5 Z"/></g>
<g><path style="opacity:0.337" fill="#828281" d="M 401.5,47.5 C 401.5,47.1667 401.5,46.8333 401.5,46.5C 418.851,46.3844 436.184,46.8844 453.5,48C 462.157,48.441 470.49,49.941 478.5,52.5C 454.976,49.1157 431.309,47.7823 407.5,48.5C 405.735,47.5386 403.735,47.2053 401.5,47.5 Z"/></g>
<g><path style="opacity:1" fill="#f4d049" d="M 307.5,48.5 C 320.5,48.5 333.5,48.5 346.5,48.5C 346.032,56.3241 346.865,63.9908 349,71.5C 349.383,72.056 349.883,72.3893 350.5,72.5C 350.5,73.1667 350.833,73.5 351.5,73.5C 351.833,74.8333 352.167,76.1667 352.5,77.5C 352.343,78.8734 352.51,80.2068 353,81.5C 355.29,83.7681 356.956,86.4348 358,89.5C 358.671,90.2524 359.504,90.5858 360.5,90.5C 361.5,93.5 363.5,95.5 366.5,96.5C 368.222,99.2396 369.388,101.906 370,104.5C 370.414,104.043 370.914,103.709 371.5,103.5C 375.202,106.844 379.535,108.844 384.5,109.5C 385.167,109.5 385.833,109.5 386.5,109.5C 388.845,112.075 391.845,113.075 395.5,112.5C 391.012,113.166 386.346,113.499 381.5,113.5C 372.105,113.486 362.771,112.819 353.5,111.5C 349.122,109.672 344.789,107.505 340.5,105C 339.207,104.51 337.873,104.343 336.5,104.5C 330.273,100.945 324.94,96.2784 320.5,90.5C 319.277,86.9505 317.277,83.9505 314.5,81.5C 312.946,76.2398 310.946,71.2398 308.5,66.5C 307.03,63.114 306.363,59.4473 306.5,55.5C 306.503,52.9746 306.837,50.6413 307.5,48.5 Z"/></g>
<g><path style="opacity:1" fill="#3d3817" d="M 407.5,48.5 C 388.013,49.8052 368.347,50.4719 348.5,50.5C 348.413,55.5365 348.746,60.5365 349.5,65.5C 348.732,64.7375 348.232,63.7375 348,62.5C 347.501,57.8452 347.334,53.1785 347.5,48.5C 367.5,48.5 387.5,48.5 407.5,48.5 Z"/></g>
<g><path style="opacity:1" fill="#090a09" d="M 407.5,48.5 C 431.309,47.7823 454.976,49.1157 478.5,52.5C 486.42,55.8251 494.42,59.1585 502.5,62.5C 504.909,65.2172 507.909,67.2172 511.5,68.5C 515.781,72.4437 520.115,76.4437 524.5,80.5C 525.419,83.0892 527.086,85.0892 529.5,86.5C 529.427,88.0269 530.094,89.0269 531.5,89.5C 531.427,91.0269 532.094,92.0269 533.5,92.5C 533.873,96.5236 535.54,99.8569 538.5,102.5C 538.338,104.527 538.505,106.527 539,108.5C 541.36,113.741 543.193,119.074 544.5,124.5C 548.197,156.531 538.863,183.864 516.5,206.5C 511.247,209.583 506.414,213.249 502,217.5C 501.235,219.066 501.402,220.399 502.5,221.5C 502.599,224.639 503.932,226.973 506.5,228.5C 506.884,232.604 508.384,236.271 511,239.5C 511.671,240.252 512.504,240.586 513.5,240.5C 513.5,241.167 513.5,241.833 513.5,242.5C 516.261,247.645 519.594,252.312 523.5,256.5C 523.427,258.027 524.094,259.027 525.5,259.5C 525.536,263.2 527.203,265.867 530.5,267.5C 530.427,269.027 531.094,270.027 532.5,270.5C 532.536,274.2 534.203,276.867 537.5,278.5C 537.427,280.027 538.094,281.027 539.5,281.5C 540.091,284.884 541.758,287.551 544.5,289.5C 544.5,290.167 544.5,290.833 544.5,291.5C 547.668,297.842 551.335,303.842 555.5,309.5C 557.184,312.367 558.684,315.367 560,318.5C 560.759,320.063 561.926,321.063 563.5,321.5C 563.785,323.288 563.452,324.955 562.5,326.5C 555.632,332.4 548.298,337.4 540.5,341.5C 538.299,342.566 535.965,343.233 533.5,343.5C 525.849,344.594 518.182,344.594 510.5,343.5C 509.508,343.672 508.842,343.338 508.5,342.5C 506.898,340.926 504.898,340.259 502.5,340.5C 500.879,338.058 498.546,336.725 495.5,336.5C 492.499,333.072 489.499,329.739 486.5,326.5C 485.833,326.167 485.167,325.833 484.5,325.5C 483.243,322.573 481.243,320.239 478.5,318.5C 474.55,311.887 470.217,305.554 465.5,299.5C 465.573,297.973 464.906,296.973 463.5,296.5C 463.573,294.973 462.906,293.973 461.5,293.5C 459.462,290.474 457.462,287.474 455.5,284.5C 455.267,282.938 454.6,281.605 453.5,280.5C 453.573,278.973 452.906,277.973 451.5,277.5C 451.573,275.973 450.906,274.973 449.5,274.5C 449.33,270.814 447.664,268.147 444.5,266.5C 444.573,264.973 443.906,263.973 442.5,263.5C 442.573,261.973 441.906,260.973 440.5,260.5C 440.573,258.973 439.906,257.973 438.5,257.5C 438.167,256.5 437.5,255.833 436.5,255.5C 435.898,251.628 434.231,248.295 431.5,245.5C 430.084,240.323 427.418,235.99 423.5,232.5C 423.573,230.973 422.906,229.973 421.5,229.5C 420.833,228.167 420.167,226.833 419.5,225.5C 419.155,222.802 417.822,220.802 415.5,219.5C 414.59,216.008 412.924,213.008 410.5,210.5C 409.532,207.9 408.199,205.566 406.5,203.5C 406.573,201.973 405.906,200.973 404.5,200.5C 403.59,197.008 401.924,194.008 399.5,191.5C 398.662,191.158 398.328,190.492 398.5,189.5C 398.5,188.167 397.833,187.5 396.5,187.5C 396.34,185.847 395.674,184.514 394.5,183.5C 391.726,177.557 388.726,171.723 385.5,166C 404.83,165.5 424.164,165.333 443.5,165.5C 447.514,165.666 451.514,165.499 455.5,165C 456.056,164.617 456.389,164.117 456.5,163.5C 459.899,163.391 462.566,162.058 464.5,159.5C 466.38,159.771 467.713,159.104 468.5,157.5C 470.587,156.415 471.92,154.749 472.5,152.5C 473.906,152.027 474.573,151.027 474.5,149.5C 474.5,149.167 474.5,148.833 474.5,148.5C 475.117,148.389 475.617,148.056 476,147.5C 476.667,142.833 476.667,138.167 476,133.5C 475.617,132.944 475.117,132.611 474.5,132.5C 474.727,130.067 473.727,128.401 471.5,127.5C 471.011,126.005 470.345,124.671 469.5,123.5C 467.573,119.908 464.573,117.908 460.5,117.5C 460.167,117.5 459.833,117.5 459.5,117.5C 457.898,115.926 455.898,115.259 453.5,115.5C 438.345,114.327 423.012,113.66 407.5,113.5C 402.156,111.367 396.489,110.367 390.5,110.5C 389.432,109.566 388.099,109.232 386.5,109.5C 386.027,108.094 385.027,107.427 383.5,107.5C 377.056,105.107 371.389,101.44 366.5,96.5C 364.882,94.215 362.882,92.215 360.5,90.5C 358.582,85.6566 355.916,81.3233 352.5,77.5C 352.167,76.1667 351.833,74.8333 351.5,73.5C 351.88,71.302 351.213,69.6354 349.5,68.5C 349.5,67.5 349.5,66.5 349.5,65.5C 348.746,60.5365 348.413,55.5365 348.5,50.5C 368.347,50.4719 388.013,49.8052 407.5,48.5 Z"/></g>
<g><path style="opacity:0.561" fill="#8c8c8c" d="M 254.5,55.5 C 253.102,53.8912 251.435,53.0579 249.5,53C 248.841,56.4773 247.175,59.3106 244.5,61.5C 245.413,57.8406 246.746,54.3406 248.5,51C 251.727,50.7135 253.727,52.2135 254.5,55.5 Z"/></g>
<g><path style="opacity:0.216" fill="#868787" d="M 478.5,52.5 C 487.311,54.0976 495.311,57.431 502.5,62.5C 494.42,59.1585 486.42,55.8251 478.5,52.5 Z"/></g>
<g><path style="opacity:0.596" fill="#878787" d="M 254.5,55.5 C 258.293,60.3162 261.293,65.6495 263.5,71.5C 262.624,71.6309 261.957,71.2975 261.5,70.5C 259.881,66.4896 257.714,62.8229 255,59.5C 254.51,58.2068 254.343,56.8734 254.5,55.5 Z"/></g>
<g><path style="opacity:1" fill="#151517" d="M 254.5,55.5 C 254.343,56.8734 254.51,58.2068 255,59.5C 257.714,62.8229 259.881,66.4896 261.5,70.5C 261.957,71.2975 262.624,71.6309 263.5,71.5C 263.157,73.4832 263.824,74.8166 265.5,75.5C 266.674,76.5137 267.34,77.847 267.5,79.5C 267.427,81.0269 268.094,82.0269 269.5,82.5C 269.031,85.3933 270.031,87.3933 272.5,88.5C 273.674,89.5137 274.34,90.847 274.5,92.5C 275.108,95.4062 276.441,97.7396 278.5,99.5C 278.833,102.167 279.167,104.833 279.5,107.5C 280.5,107.5 281.5,107.5 282.5,107.5C 282.104,112.023 283.771,115.357 287.5,117.5C 289.008,119.181 290.008,121.181 290.5,123.5C 290.755,125.967 291.755,127.967 293.5,129.5C 293.238,130.978 293.571,132.311 294.5,133.5C 295.943,136.077 297.61,138.41 299.5,140.5C 299.761,146.355 302.094,151.022 306.5,154.5C 307.674,155.514 308.34,156.847 308.5,158.5C 308.157,160.483 308.824,161.817 310.5,162.5C 310.292,166.085 311.625,168.751 314.5,170.5C 314.833,173.167 315.167,175.833 315.5,178.5C 316.5,178.5 317.5,178.5 318.5,178.5C 319.289,184.079 321.622,188.745 325.5,192.5C 325.335,195.518 325.502,198.518 326,201.5C 326.333,200.833 326.667,200.167 327,199.5C 327.671,200.252 328.504,200.586 329.5,200.5C 331.341,202.849 332.674,205.515 333.5,208.5C 333.956,213.413 335.956,217.413 339.5,220.5C 343.875,232.914 349.542,244.581 356.5,255.5C 362.892,271.947 370.558,287.614 379.5,302.5C 380.522,308.207 382.856,313.207 386.5,317.5C 386.343,318.873 386.51,320.207 387,321.5C 390.238,327.976 393.405,334.309 396.5,340.5C 396.5,340.833 396.5,341.167 396.5,341.5C 390.25,343.459 383.584,344.126 376.5,343.5C 367.818,343.479 359.152,343.146 350.5,342.5C 344.149,340.66 337.816,338.66 331.5,336.5C 331.027,335.094 330.027,334.427 328.5,334.5C 327.415,332.413 325.749,331.08 323.5,330.5C 323.144,328.81 322.144,327.81 320.5,327.5C 315.463,320.141 310.463,312.807 305.5,305.5C 305.843,303.517 305.176,302.183 303.5,301.5C 303.843,299.517 303.176,298.183 301.5,297.5C 301.657,296.127 301.49,294.793 301,293.5C 297.446,287.06 294.446,280.393 292,273.5C 290.391,270.593 288.558,267.927 286.5,265.5C 286.391,262.101 285.058,259.434 282.5,257.5C 282.657,256.127 282.49,254.793 282,253.5C 281.098,251.569 279.931,249.903 278.5,248.5C 278.34,246.847 277.674,245.514 276.5,244.5C 276.771,242.62 276.104,241.287 274.5,240.5C 268.09,226.68 261.423,213.013 254.5,199.5C 251.112,198.969 249.112,200.303 248.5,203.5C 243.76,211.308 239.26,219.308 235,227.5C 234.506,229.134 234.34,230.801 234.5,232.5C 232.204,234.401 230.371,236.734 229,239.5C 224.646,249.542 219.812,259.209 214.5,268.5C 209.928,259.33 205.428,249.996 201,240.5C 200.241,238.937 199.074,237.937 197.5,237.5C 197.573,235.973 196.906,234.973 195.5,234.5C 194.25,232.068 192.75,229.734 191,227.5C 189.549,225.536 187.716,224.203 185.5,223.5C 184.089,221.086 182.089,219.419 179.5,218.5C 178.738,216.738 177.404,215.738 175.5,215.5C 174.092,214.089 173.092,212.423 172.5,210.5C 173.762,207.978 174.429,205.311 174.5,202.5C 179.26,197.503 181.927,191.503 182.5,184.5C 185.708,182.926 187.042,180.259 186.5,176.5C 190.67,170.072 194.67,163.405 198.5,156.5C 199.324,158.748 200.324,158.914 201.5,157C 199.771,155.211 199.104,153.044 199.5,150.5C 202.415,148.349 204.082,145.349 204.5,141.5C 206.873,139.421 208.206,136.754 208.5,133.5C 210.588,131.664 211.921,129.331 212.5,126.5C 214.104,125.713 214.771,124.38 214.5,122.5C 217.77,120.555 219.437,117.555 219.5,113.5C 219.328,112.508 219.662,111.842 220.5,111.5C 222.614,110.216 223.614,108.216 223.5,105.5C 225.104,104.713 225.771,103.38 225.5,101.5C 227.104,100.713 227.771,99.3797 227.5,97.5C 229.104,96.713 229.771,95.3797 229.5,93.5C 233.396,88.7258 236.563,83.3924 239,77.5C 239.49,76.2068 239.657,74.8734 239.5,73.5C 241.448,71.6796 242.448,69.3462 242.5,66.5C 243.931,65.2196 244.598,63.5529 244.5,61.5C 247.175,59.3106 248.841,56.4773 249.5,53C 251.435,53.0579 253.102,53.8912 254.5,55.5 Z"/></g>
<g><path style="opacity:0.122" fill="#a8a8a8" d="M 244.5,61.5 C 244.598,63.5529 243.931,65.2196 242.5,66.5C 242.402,64.4471 243.069,62.7804 244.5,61.5 Z"/></g>
<g><path style="opacity:0.498" fill="#777777" d="M 502.5,62.5 C 506.049,63.7232 509.049,65.7232 511.5,68.5C 507.909,67.2172 504.909,65.2172 502.5,62.5 Z"/></g>
<g><path style="opacity:0.329" fill="#faeaa7" d="M 308.5,66.5 C 310.946,71.2398 312.946,76.2398 314.5,81.5C 311.343,77.043 309.343,72.043 308.5,66.5 Z"/></g>
<g><path style="opacity:1" fill="#4c4619" d="M 349.5,68.5 C 351.213,69.6354 351.88,71.302 351.5,73.5C 350.833,73.5 350.5,73.1667 350.5,72.5C 350.167,71.1667 349.833,69.8333 349.5,68.5 Z"/></g>
<g><path style="opacity:0.569" fill="#848484" d="M 242.5,66.5 C 242.448,69.3462 241.448,71.6796 239.5,73.5C 239.707,70.7594 240.707,68.4261 242.5,66.5 Z"/></g>
<g><path style="opacity:0.008" fill="#898989" d="M 511.5,68.5 C 517.113,71.1129 521.446,75.1129 524.5,80.5C 520.115,76.4437 515.781,72.4437 511.5,68.5 Z"/></g>
<g><path style="opacity:0.765" fill="#6a6a6b" d="M 263.5,71.5 C 264.674,72.5137 265.34,73.847 265.5,75.5C 263.824,74.8166 263.157,73.4832 263.5,71.5 Z"/></g>
<g><path style="opacity:0.133" fill="#9f9fa0" d="M 267.5,79.5 C 268.906,79.9731 269.573,80.9731 269.5,82.5C 268.094,82.0269 267.427,81.0269 267.5,79.5 Z"/></g>
<g><path style="opacity:0.427" fill="#747474" d="M 524.5,80.5 C 526.914,81.9108 528.581,83.9108 529.5,86.5C 527.086,85.0892 525.419,83.0892 524.5,80.5 Z"/></g>
<g><path style="opacity:1" fill="#94832b" d="M 352.5,77.5 C 355.916,81.3233 358.582,85.6566 360.5,90.5C 359.504,90.5858 358.671,90.2524 358,89.5C 356.956,86.4348 355.29,83.7681 353,81.5C 352.51,80.2068 352.343,78.8734 352.5,77.5 Z"/></g>
<g><path style="opacity:0.69" fill="#6d6d6f" d="M 269.5,82.5 C 271.008,84.1815 272.008,86.1815 272.5,88.5C 270.031,87.3933 269.031,85.3933 269.5,82.5 Z"/></g>
<g><path style="opacity:0.196" fill="#f9eca9" d="M 314.5,81.5 C 317.277,83.9505 319.277,86.9505 320.5,90.5C 317.759,88.0246 315.759,85.0246 314.5,81.5 Z"/></g>
<g><path style="opacity:0.388" fill="#787a79" d="M 529.5,86.5 C 530.906,86.9731 531.573,87.9731 531.5,89.5C 530.094,89.0269 529.427,88.0269 529.5,86.5 Z"/></g>
<g><path style="opacity:0.631" fill="#717171" d="M 239.5,73.5 C 239.657,74.8734 239.49,76.2068 239,77.5C 236.563,83.3924 233.396,88.7258 229.5,93.5C 232.325,86.5157 235.659,79.849 239.5,73.5 Z"/></g>
<g><path style="opacity:1" fill="#897b29" d="M 360.5,90.5 C 362.882,92.215 364.882,94.215 366.5,96.5C 363.5,95.5 361.5,93.5 360.5,90.5 Z"/></g>
<g><path style="opacity:0.204" fill="#848584" d="M 531.5,89.5 C 532.906,89.9731 533.573,90.9731 533.5,92.5C 532.094,92.0269 531.427,91.0269 531.5,89.5 Z"/></g>
<g><path style="opacity:0.388" fill="#7e7d85" d="M 274.5,92.5 C 276.588,94.3356 277.921,96.6689 278.5,99.5C 276.441,97.7396 275.108,95.4062 274.5,92.5 Z"/></g>
<g><path style="opacity:0.796" fill="#5c5d5c" d="M 533.5,92.5 C 536.001,95.3573 537.668,98.6907 538.5,102.5C 535.54,99.8569 533.873,96.5236 533.5,92.5 Z"/></g>
<g><path style="opacity:0.184" fill="#8c8c8c" d="M 229.5,93.5 C 229.771,95.3797 229.104,96.713 227.5,97.5C 227.66,95.847 228.326,94.5137 229.5,93.5 Z"/></g>
<g><path style="opacity:0.224" fill="#8b8b8b" d="M 227.5,97.5 C 227.771,99.3797 227.104,100.713 225.5,101.5C 225.66,99.847 226.326,98.5137 227.5,97.5 Z"/></g>
<g><path style="opacity:0.247" fill="#868686" d="M 225.5,101.5 C 225.771,103.38 225.104,104.713 223.5,105.5C 223.66,103.847 224.326,102.514 225.5,101.5 Z"/></g>
<g><path style="opacity:0.871" fill="#f7e895" d="M 336.5,104.5 C 337.873,104.343 339.207,104.51 340.5,105C 344.789,107.505 349.122,109.672 353.5,111.5C 347.025,110.903 341.358,108.57 336.5,104.5 Z"/></g>
<g><path style="opacity:0.953" fill="#4d4d4f" d="M 278.5,99.5 C 280.341,101.849 281.674,104.515 282.5,107.5C 281.5,107.5 280.5,107.5 279.5,107.5C 279.167,104.833 278.833,102.167 278.5,99.5 Z"/></g>
<g><path style="opacity:1" fill="#c8ae3b" d="M 366.5,96.5 C 371.389,101.44 377.056,105.107 383.5,107.5C 383.833,108.167 384.167,108.833 384.5,109.5C 379.535,108.844 375.202,106.844 371.5,103.5C 370.914,103.709 370.414,104.043 370,104.5C 369.388,101.906 368.222,99.2396 366.5,96.5 Z"/></g>
<g><path style="opacity:1" fill="#64551c" d="M 383.5,107.5 C 385.027,107.427 386.027,108.094 386.5,109.5C 385.833,109.5 385.167,109.5 384.5,109.5C 384.167,108.833 383.833,108.167 383.5,107.5 Z"/></g>
<g><path style="opacity:0.773" fill="#626264" d="M 223.5,105.5 C 223.614,108.216 222.614,110.216 220.5,111.5C 220.992,109.181 221.992,107.181 223.5,105.5 Z"/></g>
<g><path style="opacity:1" fill="#393515" d="M 390.5,110.5 C 396.489,110.367 402.156,111.367 407.5,113.5C 403.466,113.495 399.466,113.162 395.5,112.5C 393.833,111.833 392.167,111.167 390.5,110.5 Z"/></g>
<g><path style="opacity:0.69" fill="#eade98" d="M 353.5,111.5 C 362.771,112.819 372.105,113.486 381.5,113.5C 386.346,113.499 391.012,113.166 395.5,112.5C 399.466,113.162 403.466,113.495 407.5,113.5C 410.589,114.785 413.922,115.451 417.5,115.5C 417.5,115.833 417.5,116.167 417.5,116.5C 400.538,115.064 383.538,114.23 366.5,114C 361.924,113.728 357.591,112.895 353.5,111.5 Z"/></g>
<g><path style="opacity:1" fill="#9d8a2e" d="M 386.5,109.5 C 388.099,109.232 389.432,109.566 390.5,110.5C 392.167,111.167 393.833,111.833 395.5,112.5C 391.845,113.075 388.845,112.075 386.5,109.5 Z"/></g>
<g><path style="opacity:0.447" fill="#6d6d6d" d="M 538.5,102.5 C 541.887,109.346 543.887,116.68 544.5,124.5C 543.193,119.074 541.36,113.741 539,108.5C 538.505,106.527 538.338,104.527 538.5,102.5 Z"/></g>
<g><path style="opacity:0.749" fill="#545456" d="M 282.5,107.5 C 284.674,110.515 286.341,113.849 287.5,117.5C 283.771,115.357 282.104,112.023 282.5,107.5 Z"/></g>
<g><path style="opacity:1" fill="#685d20" d="M 407.5,113.5 C 423.012,113.66 438.345,114.327 453.5,115.5C 441.5,115.5 429.5,115.5 417.5,115.5C 413.922,115.451 410.589,114.785 407.5,113.5 Z"/></g>
<g><path style="opacity:1" fill="#5b4b18" d="M 453.5,115.5 C 455.898,115.259 457.898,115.926 459.5,117.5C 459.167,117.5 458.833,117.5 458.5,117.5C 456.447,117.598 454.78,116.931 453.5,115.5 Z"/></g>
<g><path style="opacity:1" fill="#f3cf47" d="M 417.5,115.5 C 429.5,115.5 441.5,115.5 453.5,115.5C 454.78,116.931 456.447,117.598 458.5,117.5C 458.5,118.5 458.5,119.5 458.5,120.5C 461.969,119.887 463.969,121.221 464.5,124.5C 467.233,124.703 469.566,125.703 471.5,127.5C 474.16,135.436 474.16,143.436 471.5,151.5C 470.178,151.33 469.011,151.663 468,152.5C 467.415,154.661 466.582,156.661 465.5,158.5C 464.833,158.5 464.5,158.833 464.5,159.5C 462.577,159.795 460.91,160.628 459.5,162C 457.527,162.495 455.527,162.662 453.5,162.5C 441.832,162.796 430.165,163.13 418.5,163.5C 420.026,161.87 422.026,161.037 424.5,161C 427.177,157.991 430.177,155.324 433.5,153C 434.406,151.301 434.739,149.467 434.5,147.5C 434.5,147.167 434.5,146.833 434.5,146.5C 435.117,146.389 435.617,146.056 436,145.5C 436.667,141.167 436.667,136.833 436,132.5C 435.617,131.944 435.117,131.611 434.5,131.5C 433.18,129.537 431.846,127.537 430.5,125.5C 429.5,122.5 427.5,120.5 424.5,119.5C 421.982,118.736 419.649,117.736 417.5,116.5C 417.5,116.167 417.5,115.833 417.5,115.5 Z"/></g>
<g><path style="opacity:0.349" fill="#fbedaa" d="M 424.5,119.5 C 427.5,120.5 429.5,122.5 430.5,125.5C 428.167,123.833 426.167,121.833 424.5,119.5 Z"/></g>
<g><path style="opacity:1" fill="#4b4117" d="M 460.5,117.5 C 464.573,117.908 467.573,119.908 469.5,123.5C 466.474,121.462 463.474,119.462 460.5,117.5 Z"/></g>
<g><path style="opacity:0.725" fill="#656565" d="M 219.5,113.5 C 219.437,117.555 217.77,120.555 214.5,122.5C 215.41,119.008 217.076,116.008 219.5,113.5 Z"/></g>
<g><path style="opacity:1" fill="#cdb53e" d="M 458.5,117.5 C 458.833,117.5 459.167,117.5 459.5,117.5C 459.833,117.5 460.167,117.5 460.5,117.5C 463.474,119.462 466.474,121.462 469.5,123.5C 470.345,124.671 471.011,126.005 471.5,127.5C 469.566,125.703 467.233,124.703 464.5,124.5C 463.969,121.221 461.969,119.887 458.5,120.5C 458.5,119.5 458.5,118.5 458.5,117.5 Z"/></g>
<g><path style="opacity:0.298" fill="#7b7b7b" d="M 214.5,122.5 C 214.771,124.38 214.104,125.713 212.5,126.5C 212.66,124.847 213.326,123.514 214.5,122.5 Z"/></g>
<g><path style="opacity:0.322" fill="#767676" d="M 290.5,123.5 C 292.245,125.033 293.245,127.033 293.5,129.5C 291.755,127.967 290.755,125.967 290.5,123.5 Z"/></g>
<g><path style="opacity:0.192" fill="#898989" d="M 212.5,126.5 C 211.921,129.331 210.588,131.664 208.5,133.5C 209.079,130.669 210.412,128.336 212.5,126.5 Z"/></g>
<g><path style="opacity:0.008" fill="#747476" d="M 293.5,129.5 C 296.258,132.678 298.258,136.345 299.5,140.5C 297.61,138.41 295.943,136.077 294.5,133.5C 293.571,132.311 293.238,130.978 293.5,129.5 Z"/></g>
<g><path style="opacity:0.259" fill="#79797b" d="M 208.5,133.5 C 208.206,136.754 206.873,139.421 204.5,141.5C 205.326,138.515 206.659,135.849 208.5,133.5 Z"/></g>
<g><path style="opacity:0.067" fill="#fbeba3" d="M 434.5,131.5 C 435.117,131.611 435.617,131.944 436,132.5C 436.667,136.833 436.667,141.167 436,145.5C 435.617,146.056 435.117,146.389 434.5,146.5C 435.833,141.5 435.833,136.5 434.5,131.5 Z"/></g>
<g><path style="opacity:1" fill="#827025" d="M 474.5,132.5 C 475.117,132.611 475.617,132.944 476,133.5C 476.667,138.167 476.667,142.833 476,147.5C 475.617,148.056 475.117,148.389 474.5,148.5C 475.704,143.144 475.704,137.811 474.5,132.5 Z"/></g>
<g><path style="opacity:0.675" fill="#5f5f5f" d="M 299.5,140.5 C 302.341,144.849 304.674,149.516 306.5,154.5C 302.094,151.022 299.761,146.355 299.5,140.5 Z"/></g>
<g><path style="opacity:0.702" fill="#6a6a6b" d="M 204.5,141.5 C 204.082,145.349 202.415,148.349 199.5,150.5C 200.41,147.008 202.076,144.008 204.5,141.5 Z"/></g>
<g><path style="opacity:1" fill="#5f5c1b" d="M 474.5,149.5 C 474.573,151.027 473.906,152.027 472.5,152.5C 472.427,150.973 473.094,149.973 474.5,149.5 Z"/></g>
<g><path style="opacity:1" fill="#d7be40" d="M 471.5,127.5 C 473.727,128.401 474.727,130.067 474.5,132.5C 475.704,137.811 475.704,143.144 474.5,148.5C 474.5,148.833 474.5,149.167 474.5,149.5C 473.094,149.973 472.427,150.973 472.5,152.5C 470.413,153.585 469.08,155.251 468.5,157.5C 467.391,157.557 466.391,157.89 465.5,158.5C 466.582,156.661 467.415,154.661 468,152.5C 469.011,151.663 470.178,151.33 471.5,151.5C 474.16,143.436 474.16,135.436 471.5,127.5 Z"/></g>
<g><path style="opacity:0.996" fill="#4f4f50" d="M 199.5,150.5 C 199.104,153.044 199.771,155.211 201.5,157C 200.324,158.914 199.324,158.748 198.5,156.5C 194.67,163.405 190.67,170.072 186.5,176.5C 190.31,167.547 194.643,158.88 199.5,150.5 Z"/></g>
<g><path style="opacity:1" fill="#675a1d" d="M 472.5,152.5 C 471.92,154.749 470.587,156.415 468.5,157.5C 469.08,155.251 470.413,153.585 472.5,152.5 Z"/></g>
<g><path style="opacity:1" fill="#725d21" d="M 468.5,157.5 C 467.713,159.104 466.38,159.771 464.5,159.5C 464.5,158.833 464.833,158.5 465.5,158.5C 466.391,157.89 467.391,157.557 468.5,157.5 Z"/></g>
<g><path style="opacity:0.741" fill="#676768" d="M 308.5,158.5 C 309.674,159.514 310.34,160.847 310.5,162.5C 308.824,161.817 308.157,160.483 308.5,158.5 Z"/></g>
<g><path style="opacity:0.09" fill="#dad7cb" d="M 397.5,163.5 C 393.298,163.183 389.298,163.517 385.5,164.5C 385.167,164.5 384.833,164.5 384.5,164.5C 382.167,164.5 379.833,164.5 377.5,164.5C 377.5,164.167 377.5,163.833 377.5,163.5C 384.329,162.501 390.995,162.501 397.5,163.5 Z"/></g>
<g><path style="opacity:0.043" fill="#ddd7b0" d="M 399.5,162.5 C 403.167,162.5 406.833,162.5 410.5,162.5C 410.5,162.833 410.5,163.167 410.5,163.5C 408.265,163.205 406.265,163.539 404.5,164.5C 402.833,164.5 401.167,164.5 399.5,164.5C 399.5,163.833 399.5,163.167 399.5,162.5 Z"/></g>
<g><path style="opacity:0.796" fill="#f4df79" d="M 434.5,147.5 C 434.739,149.467 434.406,151.301 433.5,153C 430.177,155.324 427.177,157.991 424.5,161C 422.026,161.037 420.026,161.87 418.5,163.5C 415.833,163.5 413.167,163.5 410.5,163.5C 410.5,163.167 410.5,162.833 410.5,162.5C 421.436,162.04 429.436,157.04 434.5,147.5 Z"/></g>
<g><path style="opacity:1" fill="#594e1c" d="M 464.5,159.5 C 462.566,162.058 459.899,163.391 456.5,163.5C 455.5,163.5 454.5,163.5 453.5,163.5C 453.5,163.167 453.5,162.833 453.5,162.5C 455.527,162.662 457.527,162.495 459.5,162C 460.91,160.628 462.577,159.795 464.5,159.5 Z"/></g>
<g><path style="opacity:0.224" fill="#faeea8" d="M 377.5,163.5 C 377.5,163.833 377.5,164.167 377.5,164.5C 366.836,164.088 356.17,163.755 345.5,163.5C 345.5,164.833 345.5,166.167 345.5,167.5C 343.78,166.249 343.447,164.749 344.5,163C 355.503,162.658 366.503,162.825 377.5,163.5 Z"/></g>
<g><path style="opacity:0.38" fill="#a09f99" d="M 399.5,162.5 C 399.5,163.167 399.5,163.833 399.5,164.5C 394.833,164.5 390.167,164.5 385.5,164.5C 389.298,163.517 393.298,163.183 397.5,163.5C 398.167,163.167 398.833,162.833 399.5,162.5 Z"/></g>
<g><path style="opacity:1" fill="#d7bb42" d="M 453.5,162.5 C 453.5,162.833 453.5,163.167 453.5,163.5C 450.14,163.616 446.807,163.949 443.5,164.5C 430.5,164.5 417.5,164.5 404.5,164.5C 406.265,163.539 408.265,163.205 410.5,163.5C 413.167,163.5 415.833,163.5 418.5,163.5C 430.165,163.13 441.832,162.796 453.5,162.5 Z"/></g>
<g><path style="opacity:1" fill="#2a260f" d="M 453.5,163.5 C 454.5,163.5 455.5,163.5 456.5,163.5C 456.389,164.117 456.056,164.617 455.5,165C 451.514,165.499 447.514,165.666 443.5,165.5C 443.5,165.167 443.5,164.833 443.5,164.5C 446.807,163.949 450.14,163.616 453.5,163.5 Z"/></g>
<g><path style="opacity:0.769" fill="#666668" d="M 310.5,162.5 C 312.341,164.849 313.674,167.515 314.5,170.5C 311.625,168.751 310.292,166.085 310.5,162.5 Z"/></g>
<g><path style="opacity:1" fill="#f4cf47" d="M 384.5,165.5 C 386.916,172.156 390.25,178.156 394.5,183.5C 395.674,184.514 396.34,185.847 396.5,187.5C 397.833,187.5 398.5,188.167 398.5,189.5C 398.328,190.492 398.662,191.158 399.5,191.5C 399.343,192.873 399.51,194.207 400,195.5C 401.067,197.692 402.567,199.358 404.5,200.5C 404.427,202.027 405.094,203.027 406.5,203.5C 406.149,206.812 407.482,209.145 410.5,210.5C 410.343,211.873 410.51,213.207 411,214.5C 412.067,216.692 413.567,218.358 415.5,219.5C 416.298,221.966 417.631,223.966 419.5,225.5C 420.167,226.833 420.833,228.167 421.5,229.5C 421.427,231.027 422.094,232.027 423.5,232.5C 425.453,236.069 427.119,239.736 428.5,243.5C 430.673,247.852 433.34,251.852 436.5,255.5C 437.5,255.833 438.167,256.5 438.5,257.5C 438.427,259.027 439.094,260.027 440.5,260.5C 440.427,262.027 441.094,263.027 442.5,263.5C 442.427,265.027 443.094,266.027 444.5,266.5C 446.171,269.177 447.837,271.844 449.5,274.5C 449.427,276.027 450.094,277.027 451.5,277.5C 451.5,278.167 451.5,278.833 451.5,279.5C 452.08,281.749 453.413,283.415 455.5,284.5C 455.908,288.573 457.908,291.573 461.5,293.5C 461.427,295.027 462.094,296.027 463.5,296.5C 463.427,298.027 464.094,299.027 465.5,299.5C 465.931,302.449 467.098,305.116 469,307.5C 471.909,311.449 475.076,315.115 478.5,318.5C 479.757,321.427 481.757,323.761 484.5,325.5C 484.738,327.404 485.738,328.738 487.5,329.5C 489.543,332.543 492.21,334.876 495.5,336.5C 497.167,337.833 498.833,339.167 500.5,340.5C 497.01,341.257 493.677,342.257 490.5,343.5C 490.167,343.5 489.833,343.5 489.5,343.5C 481.414,343.522 473.414,342.689 465.5,341C 463.026,339.132 460.693,337.132 458.5,335C 459.5,334.667 460.5,334.333 461.5,334C 458.854,333.503 456.187,333.336 453.5,333.5C 453.762,332.022 453.429,330.689 452.5,329.5C 451.808,330.025 451.308,330.692 451,331.5C 450.184,330.177 449.017,329.511 447.5,329.5C 447.167,327.167 445.833,325.833 443.5,325.5C 443.5,325.167 443.5,324.833 443.5,324.5C 442.753,321.638 441.086,319.638 438.5,318.5C 438.33,315.796 436.997,314.129 434.5,313.5C 434.5,313.167 434.5,312.833 434.5,312.5C 433.864,310.205 432.531,308.539 430.5,307.5C 430.715,305.821 430.048,304.821 428.5,304.5C 428.715,302.821 428.048,301.821 426.5,301.5C 426.737,297.684 425.071,295.351 421.5,294.5C 421.167,293.833 420.833,293.167 420.5,292.5C 420.446,290.368 419.446,289.035 417.5,288.5C 415.902,286.302 414.569,283.969 413.5,281.5C 413.155,278.802 411.822,276.802 409.5,275.5C 403.215,263.586 396.215,252.253 388.5,241.5C 388.573,239.973 387.906,238.973 386.5,238.5C 385.186,233.868 382.853,229.868 379.5,226.5C 378.502,222.495 376.502,219.161 373.5,216.5C 369.755,208.675 365.755,201.008 361.5,193.5C 362.32,189.842 360.987,187.509 357.5,186.5C 358.609,185.035 358.109,184.035 356,183.5C 355.5,182 355,180.5 354.5,179C 356.273,176.41 357.273,173.577 357.5,170.5C 356.5,170.5 355.5,170.5 354.5,170.5C 354.5,171.833 354.5,173.167 354.5,174.5C 350.026,173.053 349.359,170.386 352.5,166.5C 363.146,165.501 373.813,165.168 384.5,165.5 Z"/></g>
<g><path style="opacity:0.216" fill="#fbedb2" d="M 345.5,167.5 C 347.588,169.336 348.921,171.669 349.5,174.5C 347.412,172.664 346.079,170.331 345.5,167.5 Z"/></g>
<g><path style="opacity:1" fill="#f3d658" d="M 377.5,164.5 C 379.833,164.5 382.167,164.5 384.5,164.5C 384.5,164.833 384.5,165.167 384.5,165.5C 373.813,165.168 363.146,165.501 352.5,166.5C 349.359,170.386 350.026,173.053 354.5,174.5C 354.5,173.167 354.5,171.833 354.5,170.5C 355.5,170.5 356.5,170.5 357.5,170.5C 357.273,173.577 356.273,176.41 354.5,179C 355,180.5 355.5,182 356,183.5C 358.109,184.035 358.609,185.035 357.5,186.5C 360.987,187.509 362.32,189.842 361.5,193.5C 360.728,192.306 359.728,191.306 358.5,190.5C 356.412,188.664 355.079,186.331 354.5,183.5C 353.59,180.008 351.924,177.008 349.5,174.5C 348.921,171.669 347.588,169.336 345.5,167.5C 345.5,166.167 345.5,164.833 345.5,163.5C 356.17,163.755 366.836,164.088 377.5,164.5 Z"/></g>
<g><path style="opacity:1" fill="#73672d" d="M 384.5,164.5 C 384.833,164.5 385.167,164.5 385.5,164.5C 390.167,164.5 394.833,164.5 399.5,164.5C 401.167,164.5 402.833,164.5 404.5,164.5C 417.5,164.5 430.5,164.5 443.5,164.5C 443.5,164.833 443.5,165.167 443.5,165.5C 424.164,165.333 404.83,165.5 385.5,166C 388.726,171.723 391.726,177.557 394.5,183.5C 390.25,178.156 386.916,172.156 384.5,165.5C 384.5,165.167 384.5,164.833 384.5,164.5 Z"/></g>
<g><path style="opacity:0.173" fill="#f8edaa" d="M 349.5,174.5 C 351.924,177.008 353.59,180.008 354.5,183.5C 352.076,180.992 350.41,177.992 349.5,174.5 Z"/></g>
<g><path style="opacity:0.98" fill="#474748" d="M 314.5,170.5 C 316.341,172.849 317.674,175.515 318.5,178.5C 317.5,178.5 316.5,178.5 315.5,178.5C 315.167,175.833 314.833,173.167 314.5,170.5 Z"/></g>
<g><path style="opacity:0.965" fill="#49494a" d="M 186.5,176.5 C 187.042,180.259 185.708,182.926 182.5,184.5C 183.326,181.515 184.659,178.849 186.5,176.5 Z"/></g>
<g><path style="opacity:0.769" fill="#656566" d="M 318.5,178.5 C 321.341,182.849 323.674,187.516 325.5,192.5C 321.622,188.745 319.289,184.079 318.5,178.5 Z"/></g>
<g><path style="opacity:1" fill="#605c1b" d="M 396.5,187.5 C 397.833,187.5 398.5,188.167 398.5,189.5C 397.167,189.5 396.5,188.833 396.5,187.5 Z"/></g>
<g><path style="opacity:0.918" fill="#5a5a5c" d="M 182.5,184.5 C 181.927,191.503 179.26,197.503 174.5,202.5C 176.656,196.196 179.322,190.196 182.5,184.5 Z"/></g>
<g><path style="opacity:1" fill="#796b24" d="M 399.5,191.5 C 401.924,194.008 403.59,197.008 404.5,200.5C 402.567,199.358 401.067,197.692 400,195.5C 399.51,194.207 399.343,192.873 399.5,191.5 Z"/></g>
<g><path style="opacity:1" fill="#404042" d="M 325.5,192.5 C 327.341,194.849 328.674,197.515 329.5,200.5C 328.504,200.586 327.671,200.252 327,199.5C 326.667,200.167 326.333,200.833 326,201.5C 325.502,198.518 325.335,195.518 325.5,192.5 Z"/></g>
<g><path style="opacity:1" fill="#5b521b" d="M 404.5,200.5 C 405.906,200.973 406.573,201.973 406.5,203.5C 405.094,203.027 404.427,202.027 404.5,200.5 Z"/></g>
<g><path style="opacity:1" fill="#716721" d="M 406.5,203.5 C 408.199,205.566 409.532,207.9 410.5,210.5C 407.482,209.145 406.149,206.812 406.5,203.5 Z"/></g>
<g><path style="opacity:0.353" fill="#fae99d" d="M 358.5,190.5 C 359.728,191.306 360.728,192.306 361.5,193.5C 365.755,201.008 369.755,208.675 373.5,216.5C 367.709,208.355 362.709,199.688 358.5,190.5 Z"/></g>
<g><path style="opacity:0.424" fill="#8a8a8a" d="M 174.5,202.5 C 174.429,205.311 173.762,207.978 172.5,210.5C 173.092,212.423 174.092,214.089 175.5,215.5C 173.271,214.945 171.605,213.611 170.5,211.5C 171.091,208.08 172.424,205.08 174.5,202.5 Z"/></g>
<g><path style="opacity:0.745" fill="#6d6d6e" d="M 333.5,208.5 C 336.008,212.182 338.008,216.182 339.5,220.5C 335.956,217.413 333.956,213.413 333.5,208.5 Z"/></g>
<g><path style="opacity:0.388" fill="#8e8f8f" d="M 544.5,124.5 C 550.524,164.45 536.857,195.783 503.5,218.5C 502.614,219.325 502.281,220.325 502.5,221.5C 501.402,220.399 501.235,219.066 502,217.5C 506.414,213.249 511.247,209.583 516.5,206.5C 538.863,183.864 548.197,156.531 544.5,124.5 Z"/></g>
<g><path style="opacity:0.349" fill="#848485" d="M 248.5,203.5 C 244.62,213.591 239.954,223.258 234.5,232.5C 234.34,230.801 234.506,229.134 235,227.5C 239.26,219.308 243.76,211.308 248.5,203.5 Z"/></g>
<g><path style="opacity:1" fill="#7f7327" d="M 410.5,210.5 C 412.924,213.008 414.59,216.008 415.5,219.5C 413.567,218.358 412.067,216.692 411,214.5C 410.51,213.207 410.343,211.873 410.5,210.5 Z"/></g>
<g><path style="opacity:0.353" fill="#909090" d="M 175.5,215.5 C 177.404,215.738 178.738,216.738 179.5,218.5C 177.596,218.262 176.262,217.262 175.5,215.5 Z"/></g>
<g><path style="opacity:0.518" fill="#8e8e8f" d="M 179.5,218.5 C 182.089,219.419 184.089,221.086 185.5,223.5C 182.911,222.581 180.911,220.914 179.5,218.5 Z"/></g>
<g><path style="opacity:1" fill="#685c25" d="M 415.5,219.5 C 417.822,220.802 419.155,222.802 419.5,225.5C 417.631,223.966 416.298,221.966 415.5,219.5 Z"/></g>
<g><path style="opacity:0.278" fill="#f6e8a7" d="M 373.5,216.5 C 376.502,219.161 378.502,222.495 379.5,226.5C 377,223.506 375,220.173 373.5,216.5 Z"/></g>
<g><path style="opacity:0.714" fill="#79797a" d="M 339.5,220.5 C 345.98,231.792 351.646,243.459 356.5,255.5C 349.542,244.581 343.875,232.914 339.5,220.5 Z"/></g>
<g><path style="opacity:0.784" fill="#787978" d="M 502.5,221.5 C 504.588,223.336 505.921,225.669 506.5,228.5C 503.932,226.973 502.599,224.639 502.5,221.5 Z"/></g>
<g><path style="opacity:0.357" fill="#7f7f80" d="M 274.5,240.5 C 267.737,228.324 260.904,215.991 254,203.5C 253.167,202.5 252.333,201.5 251.5,200.5C 250.712,201.77 249.712,202.77 248.5,203.5C 249.112,200.303 251.112,198.969 254.5,199.5C 261.423,213.013 268.09,226.68 274.5,240.5 Z"/></g>
<g><path style="opacity:0.192" fill="#fbeaab" d="M 379.5,226.5 C 382.853,229.868 385.186,233.868 386.5,238.5C 383.665,234.836 381.332,230.836 379.5,226.5 Z"/></g>
<g><path style="opacity:0.275" fill="#878787" d="M 185.5,223.5 C 187.716,224.203 189.549,225.536 191,227.5C 192.75,229.734 194.25,232.068 195.5,234.5C 191.943,231.064 188.609,227.397 185.5,223.5 Z"/></g>
<g><path style="opacity:1" fill="#68591e" d="M 421.5,229.5 C 422.906,229.973 423.573,230.973 423.5,232.5C 422.094,232.027 421.427,231.027 421.5,229.5 Z"/></g>
<g><path style="opacity:1" fill="#473e1a" d="M 423.5,232.5 C 427.418,235.99 430.084,240.323 431.5,245.5C 430.5,244.833 429.5,244.167 428.5,243.5C 427.119,239.736 425.453,236.069 423.5,232.5 Z"/></g>
<g><path style="opacity:0.722" fill="#616161" d="M 506.5,228.5 C 509.335,232.164 511.668,236.164 513.5,240.5C 512.504,240.586 511.671,240.252 511,239.5C 508.384,236.271 506.884,232.604 506.5,228.5 Z"/></g>
<g><path style="opacity:0.106" fill="#a0a0a1" d="M 195.5,234.5 C 196.906,234.973 197.573,235.973 197.5,237.5C 196.094,237.027 195.427,236.027 195.5,234.5 Z"/></g>
<g><path style="opacity:0.02" fill="#fdf0ba" d="M 386.5,238.5 C 387.906,238.973 388.573,239.973 388.5,241.5C 387.094,241.027 386.427,240.027 386.5,238.5 Z"/></g>
<g><path style="opacity:0.333" fill="#7c7c7c" d="M 274.5,240.5 C 276.104,241.287 276.771,242.62 276.5,244.5C 274.896,243.713 274.229,242.38 274.5,240.5 Z"/></g>
<g><path style="opacity:0.22" fill="#999a9a" d="M 513.5,240.5 C 514.906,240.973 515.573,241.973 515.5,243.5C 514.833,243.167 514.167,242.833 513.5,242.5C 513.5,241.833 513.5,241.167 513.5,240.5 Z"/></g>
<g><path style="opacity:0.141" fill="#8f8f8f" d="M 276.5,244.5 C 277.674,245.514 278.34,246.847 278.5,248.5C 276.896,247.713 276.229,246.38 276.5,244.5 Z"/></g>
<g><path style="opacity:0.561" fill="#808081" d="M 234.5,232.5 C 228.882,246.403 222.215,259.737 214.5,272.5C 213.522,272.023 212.689,271.357 212,270.5C 208.2,258.913 203.367,247.913 197.5,237.5C 199.074,237.937 200.241,238.937 201,240.5C 205.428,249.996 209.928,259.33 214.5,268.5C 219.812,259.209 224.646,249.542 229,239.5C 230.371,236.734 232.204,234.401 234.5,232.5 Z"/></g>
<g><path style="opacity:1" fill="#9a8b2c" d="M 428.5,243.5 C 429.5,244.167 430.5,244.833 431.5,245.5C 434.231,248.295 435.898,251.628 436.5,255.5C 433.34,251.852 430.673,247.852 428.5,243.5 Z"/></g>
<g><path style="opacity:0.373" fill="#767676" d="M 513.5,242.5 C 514.167,242.833 514.833,243.167 515.5,243.5C 518.916,247.323 521.582,251.657 523.5,256.5C 519.594,252.312 516.261,247.645 513.5,242.5 Z"/></g>
<g><path style="opacity:0.188" fill="#848485" d="M 278.5,248.5 C 279.931,249.903 281.098,251.569 282,253.5C 282.49,254.793 282.657,256.127 282.5,257.5C 280.375,254.912 279.042,251.912 278.5,248.5 Z"/></g>
<g><path style="opacity:0.773" fill="#787879" d="M 356.5,255.5 C 364.995,270.822 372.661,286.488 379.5,302.5C 370.558,287.614 362.892,271.947 356.5,255.5 Z"/></g>
<g><path style="opacity:0.243" fill="#9b9b9b" d="M 523.5,256.5 C 524.906,256.973 525.573,257.973 525.5,259.5C 524.094,259.027 523.427,258.027 523.5,256.5 Z"/></g>
<g><path style="opacity:1" fill="#6e6823" d="M 438.5,257.5 C 439.906,257.973 440.573,258.973 440.5,260.5C 439.094,260.027 438.427,259.027 438.5,257.5 Z"/></g>
<g><path style="opacity:0.463" fill="#f9e794" d="M 152.5,260.5 C 146.605,263.139 140.605,265.472 134.5,267.5C 137.32,264.919 140.654,263.086 144.5,262C 147.063,260.921 149.729,260.421 152.5,260.5 Z"/></g>
<g><path style="opacity:0.333" fill="#f8eba4" d="M 152.5,260.5 C 159.884,258.608 166.884,259.608 173.5,263.5C 166.637,261.662 159.637,260.662 152.5,260.5 Z"/></g>
<g><path style="opacity:0.298" fill="#777778" d="M 282.5,257.5 C 285.058,259.434 286.391,262.101 286.5,265.5C 284.659,263.151 283.326,260.485 282.5,257.5 Z"/></g>
<g><path style="opacity:0.263" fill="#fcedb1" d="M 388.5,241.5 C 396.215,252.253 403.215,263.586 409.5,275.5C 401.715,264.701 394.715,253.368 388.5,241.5 Z"/></g>
<g><path style="opacity:1" fill="#65591e" d="M 440.5,260.5 C 441.906,260.973 442.573,261.973 442.5,263.5C 441.094,263.027 440.427,262.027 440.5,260.5 Z"/></g>
<g><path style="opacity:0.741" fill="#6d6d6d" d="M 525.5,259.5 C 527.664,261.822 529.331,264.489 530.5,267.5C 527.203,265.867 525.536,263.2 525.5,259.5 Z"/></g>
<g><path style="opacity:1" fill="#f5d047" d="M 152.5,260.5 C 159.637,260.662 166.637,261.662 173.5,263.5C 175.147,265.326 177.147,266.66 179.5,267.5C 179.833,267.5 180.167,267.5 180.5,267.5C 181.419,270.089 183.086,272.089 185.5,273.5C 185.738,275.404 186.738,276.738 188.5,277.5C 189.338,277.842 189.672,278.508 189.5,279.5C 192.658,290.38 193.158,301.38 191,312.5C 189.879,315.592 188.713,318.592 187.5,321.5C 184.758,323.575 182.424,325.909 180.5,328.5C 175.086,330.84 169.753,333.174 164.5,335.5C 157.476,335.565 150.476,335.232 143.5,334.5C 141.71,333.239 140.043,331.739 138.5,330C 137.207,329.51 135.873,329.343 134.5,329.5C 132.5,327.167 130.5,324.833 128.5,322.5C 127.587,320.914 127.587,319.414 128.5,318C 127.207,317.51 125.873,317.343 124.5,317.5C 123.737,315.632 122.737,313.965 121.5,312.5C 121.946,309.99 121.28,307.99 119.5,306.5C 119.334,300.491 119.501,294.491 120,288.5C 122.066,285.039 123.566,281.373 124.5,277.5C 126.587,276.415 127.92,274.749 128.5,272.5C 128.5,271.833 128.833,271.5 129.5,271.5C 131.749,270.92 133.415,269.587 134.5,267.5C 140.605,265.472 146.605,263.139 152.5,260.5 Z"/></g>
<g><path style="opacity:0.165" fill="#fbefa6" d="M 173.5,263.5 C 176.198,263.845 178.198,265.178 179.5,267.5C 177.147,266.66 175.147,265.326 173.5,263.5 Z"/></g>
<g><path style="opacity:1" fill="#5c5520" d="M 442.5,263.5 C 443.906,263.973 444.573,264.973 444.5,266.5C 443.094,266.027 442.427,265.027 442.5,263.5 Z"/></g>
<g><path style="opacity:0.302" fill="#faefb0" d="M 180.5,267.5 C 182.914,268.911 184.581,270.911 185.5,273.5C 183.086,272.089 181.419,270.089 180.5,267.5 Z"/></g>
<g><path style="opacity:1" fill="#3b3317" d="M 444.5,266.5 C 447.664,268.147 449.33,270.814 449.5,274.5C 447.837,271.844 446.171,269.177 444.5,266.5 Z"/></g>
<g><path style="opacity:0.235" fill="#9c9c9c" d="M 530.5,267.5 C 531.906,267.973 532.573,268.973 532.5,270.5C 531.094,270.027 530.427,269.027 530.5,267.5 Z"/></g>
<g><path style="opacity:0.537" fill="#f9e897" d="M 134.5,267.5 C 133.415,269.587 131.749,270.92 129.5,271.5C 130.585,269.413 132.251,268.08 134.5,267.5 Z"/></g>
<g><path style="opacity:0.831" fill="#6d6f6d" d="M 532.5,270.5 C 534.664,272.822 536.331,275.489 537.5,278.5C 534.203,276.867 532.536,274.2 532.5,270.5 Z"/></g>
<g><path style="opacity:0.396" fill="#f8ebb3" d="M 185.5,273.5 C 187.262,274.262 188.262,275.596 188.5,277.5C 186.738,276.738 185.738,275.404 185.5,273.5 Z"/></g>
<g><path style="opacity:1" fill="#5d4e1e" d="M 449.5,274.5 C 450.906,274.973 451.573,275.973 451.5,277.5C 450.094,277.027 449.427,276.027 449.5,274.5 Z"/></g>
<g><path style="opacity:0.192" fill="#f9eca6" d="M 128.5,272.5 C 127.92,274.749 126.587,276.415 124.5,277.5C 125.08,275.251 126.413,273.585 128.5,272.5 Z"/></g>
<g><path style="opacity:0.275" fill="#818182" d="M 286.5,265.5 C 288.558,267.927 290.391,270.593 292,273.5C 294.446,280.393 297.446,287.06 301,293.5C 301.49,294.793 301.657,296.127 301.5,297.5C 295.744,287.252 290.744,276.586 286.5,265.5 Z"/></g>
<g><path style="opacity:1" fill="#584918" d="M 451.5,277.5 C 452.906,277.973 453.573,278.973 453.5,280.5C 452.833,280.167 452.167,279.833 451.5,279.5C 451.5,278.833 451.5,278.167 451.5,277.5 Z"/></g>
<g><path style="opacity:0.325" fill="#faf0b9" d="M 409.5,275.5 C 411.822,276.802 413.155,278.802 413.5,281.5C 411.674,279.853 410.34,277.853 409.5,275.5 Z"/></g>
<g><path style="opacity:0.247" fill="#989898" d="M 537.5,278.5 C 538.906,278.973 539.573,279.973 539.5,281.5C 538.094,281.027 537.427,280.027 537.5,278.5 Z"/></g>
<g><path style="opacity:1" fill="#95842e" d="M 451.5,279.5 C 452.167,279.833 452.833,280.167 453.5,280.5C 454.6,281.605 455.267,282.938 455.5,284.5C 453.413,283.415 452.08,281.749 451.5,279.5 Z"/></g>
<g><path style="opacity:0.325" fill="#8d8d8d" d="M 539.5,281.5 C 541.95,283.629 543.617,286.296 544.5,289.5C 541.758,287.551 540.091,284.884 539.5,281.5 Z"/></g>
<g><path style="opacity:1" fill="#a08d31" d="M 455.5,284.5 C 457.462,287.474 459.462,290.474 461.5,293.5C 457.908,291.573 455.908,288.573 455.5,284.5 Z"/></g>
<g><path style="opacity:0.259" fill="#fcedba" d="M 417.5,288.5 C 419.446,289.035 420.446,290.368 420.5,292.5C 419.026,291.564 418.026,290.23 417.5,288.5 Z"/></g>
<g><path style="opacity:0.341" fill="#9e9e9e" d="M 544.5,289.5 C 545.906,289.973 546.573,290.973 546.5,292.5C 545.833,292.167 545.167,291.833 544.5,291.5C 544.5,290.833 544.5,290.167 544.5,289.5 Z"/></g>
<g><path style="opacity:0.145" fill="#faeeaf" d="M 124.5,277.5 C 123.566,281.373 122.066,285.039 120,288.5C 119.501,294.491 119.334,300.491 119.5,306.5C 118.347,300.347 118.18,294.014 119,287.5C 120.086,283.654 121.919,280.32 124.5,277.5 Z"/></g>
<g><path style="opacity:0.973" fill="#f9e697" d="M 421.5,294.5 C 425.071,295.351 426.737,297.684 426.5,301.5C 424.478,299.469 422.811,297.135 421.5,294.5 Z"/></g>
<g><path style="opacity:1" fill="#7a6926" d="M 461.5,293.5 C 462.906,293.973 463.573,294.973 463.5,296.5C 462.094,296.027 461.427,295.027 461.5,293.5 Z"/></g>
<g><path style="opacity:0.804" fill="#636363" d="M 544.5,291.5 C 545.167,291.833 545.833,292.167 546.5,292.5C 550.251,296.995 553.251,301.995 555.5,307.5C 555.5,308.167 555.5,308.833 555.5,309.5C 551.335,303.842 547.668,297.842 544.5,291.5 Z"/></g>
<g><path style="opacity:0.463" fill="#7e7e81" d="M 301.5,297.5 C 303.176,298.183 303.843,299.517 303.5,301.5C 302.326,300.486 301.66,299.153 301.5,297.5 Z"/></g>
<g><path style="opacity:1" fill="#7c6921" d="M 463.5,296.5 C 464.906,296.973 465.573,297.973 465.5,299.5C 464.094,299.027 463.427,298.027 463.5,296.5 Z"/></g>
<g><path style="opacity:0.746" fill="#f9e68e" d="M 189.5,279.5 C 195.557,291.79 196.057,304.457 191,317.5C 190.051,319.093 188.885,320.426 187.5,321.5C 188.713,318.592 189.879,315.592 191,312.5C 193.158,301.38 192.658,290.38 189.5,279.5 Z"/></g>
<g><path style="opacity:0.435" fill="#818181" d="M 303.5,301.5 C 305.176,302.183 305.843,303.517 305.5,305.5C 304.326,304.486 303.66,303.153 303.5,301.5 Z"/></g>
<g><path style="opacity:0.251" fill="#fbebb6" d="M 426.5,301.5 C 428.048,301.821 428.715,302.821 428.5,304.5C 427.094,304.027 426.427,303.027 426.5,301.5 Z"/></g>
<g><path style="opacity:0.651" fill="#818181" d="M 379.5,302.5 C 382.616,307.07 384.95,312.07 386.5,317.5C 382.856,313.207 380.522,308.207 379.5,302.5 Z"/></g>
<g><path style="opacity:0.031" fill="#fcf1bb" d="M 428.5,304.5 C 430.048,304.821 430.715,305.821 430.5,307.5C 429.599,306.71 428.932,305.71 428.5,304.5 Z"/></g>
<g><path style="opacity:1" fill="#a29030" d="M 465.5,299.5 C 470.217,305.554 474.55,311.887 478.5,318.5C 475.076,315.115 471.909,311.449 469,307.5C 467.098,305.116 465.931,302.449 465.5,299.5 Z"/></g>
<g><path style="opacity:0.02" fill="#fbeeb4" d="M 430.5,307.5 C 432.531,308.539 433.864,310.205 434.5,312.5C 432.457,311.421 431.124,309.754 430.5,307.5 Z"/></g>
<g><path style="opacity:0.184" fill="#acacac" d="M 555.5,307.5 C 556.906,307.973 557.573,308.973 557.5,310.5C 556.833,310.167 556.167,309.833 555.5,309.5C 555.5,308.833 555.5,308.167 555.5,307.5 Z"/></g>
<g><path style="opacity:0.137" fill="#faedba" d="M 119.5,306.5 C 121.28,307.99 121.946,309.99 121.5,312.5C 119.926,310.898 119.259,308.898 119.5,306.5 Z"/></g>
<g><path style="opacity:0.286" fill="#8f8f8f" d="M 305.5,305.5 C 310.463,312.807 315.463,320.141 320.5,327.5C 313.944,321.269 308.944,313.935 305.5,305.5 Z"/></g>
<g><path style="opacity:0.733" fill="#6e6e6e" d="M 555.5,309.5 C 556.167,309.833 556.833,310.167 557.5,310.5C 560.258,313.678 562.258,317.345 563.5,321.5C 561.926,321.063 560.759,320.063 560,318.5C 558.684,315.367 557.184,312.367 555.5,309.5 Z"/></g>
<g><path style="opacity:0.129" fill="#fdebbc" d="M 121.5,312.5 C 122.737,313.965 123.737,315.632 124.5,317.5C 124.5,317.833 124.5,318.167 124.5,318.5C 122.461,317.089 121.461,315.089 121.5,312.5 Z"/></g>
<g><path style="opacity:0.161" fill="#fceeba" d="M 434.5,313.5 C 436.997,314.129 438.33,315.796 438.5,318.5C 436.937,317.055 435.604,315.389 434.5,313.5 Z"/></g>
<g><path style="opacity:1" fill="#f8df79" d="M 124.5,317.5 C 125.873,317.343 127.207,317.51 128.5,318C 127.587,319.414 127.587,320.914 128.5,322.5C 127.833,322.5 127.167,322.5 126.5,322.5C 125.4,321.395 124.733,320.062 124.5,318.5C 124.5,318.167 124.5,317.833 124.5,317.5 Z"/></g>
<g><path style="opacity:0.667" fill="#7e7e80" d="M 386.5,317.5 C 390.632,324.097 393.965,331.097 396.5,338.5C 396.5,339.167 396.5,339.833 396.5,340.5C 393.405,334.309 390.238,327.976 387,321.5C 386.51,320.207 386.343,318.873 386.5,317.5 Z"/></g>
<g><path style="opacity:0.075" fill="#fbebb4" d="M 438.5,318.5 C 441.086,319.638 442.753,321.638 443.5,324.5C 441.11,323.109 439.443,321.109 438.5,318.5 Z"/></g>
<g><path style="opacity:1" fill="#7b6a22" d="M 478.5,318.5 C 481.243,320.239 483.243,322.573 484.5,325.5C 481.757,323.761 479.757,321.427 478.5,318.5 Z"/></g>
<g><path style="opacity:0.035" fill="#fcf2c0" d="M 126.5,322.5 C 127.167,322.5 127.833,322.5 128.5,322.5C 130.5,324.833 132.5,327.167 134.5,329.5C 131.236,327.906 128.569,325.573 126.5,322.5 Z"/></g>
<g><path style="opacity:0.043" fill="#fbf4b8" d="M 187.5,321.5 C 186.189,324.811 183.855,327.145 180.5,328.5C 182.424,325.909 184.758,323.575 187.5,321.5 Z"/></g>
<g><path style="opacity:0.078" fill="#fceeb4" d="M 443.5,325.5 C 445.833,325.833 447.167,327.167 447.5,329.5C 445.833,328.5 444.5,327.167 443.5,325.5 Z"/></g>
<g><path style="opacity:1" fill="#7d6e25" d="M 484.5,325.5 C 485.167,325.833 485.833,326.167 486.5,326.5C 487.11,327.391 487.443,328.391 487.5,329.5C 485.738,328.738 484.738,327.404 484.5,325.5 Z"/></g>
<g><path style="opacity:1" fill="#312713" d="M 486.5,326.5 C 489.499,329.739 492.499,333.072 495.5,336.5C 492.21,334.876 489.543,332.543 487.5,329.5C 487.443,328.391 487.11,327.391 486.5,326.5 Z"/></g>
<g><path style="opacity:0.918" fill="#f7e899" d="M 134.5,329.5 C 135.873,329.343 137.207,329.51 138.5,330C 140.043,331.739 141.71,333.239 143.5,334.5C 139.748,334.06 136.748,332.393 134.5,329.5 Z"/></g>
<g><path style="opacity:0.161" fill="#fbedb4" d="M 180.5,328.5 C 175.943,332.442 170.609,334.775 164.5,335.5C 169.753,333.174 175.086,330.84 180.5,328.5 Z"/></g>
<g><path style="opacity:0.012" fill="#8a8a8b" d="M 320.5,327.5 C 322.144,327.81 323.144,328.81 323.5,330.5C 321.856,330.19 320.856,329.19 320.5,327.5 Z"/></g>
<g><path style="opacity:0.365" fill="#848484" d="M 323.5,330.5 C 325.749,331.08 327.415,332.413 328.5,334.5C 326.251,333.92 324.585,332.587 323.5,330.5 Z"/></g>
<g><path style="opacity:1" fill="#f5da6a" d="M 447.5,329.5 C 449.017,329.511 450.184,330.177 451,331.5C 451.308,330.692 451.808,330.025 452.5,329.5C 453.429,330.689 453.762,332.022 453.5,333.5C 456.187,333.336 458.854,333.503 461.5,334C 460.5,334.333 459.5,334.667 458.5,335C 460.693,337.132 463.026,339.132 465.5,341C 473.414,342.689 481.414,343.522 489.5,343.5C 484.36,344.488 479.026,344.821 473.5,344.5C 467.864,343.84 462.864,341.84 458.5,338.5C 457.656,336.241 455.989,335.241 453.5,335.5C 451.167,333.833 449.167,331.833 447.5,329.5 Z"/></g>
<g><path style="opacity:0.373" fill="#8e8e8e" d="M 328.5,334.5 C 330.027,334.427 331.027,335.094 331.5,336.5C 329.973,336.573 328.973,335.906 328.5,334.5 Z"/></g>
<g><path style="opacity:0.435" fill="#898989" d="M 563.5,321.5 C 565.326,323.437 565.493,325.437 564,327.5C 558.388,332.714 552.221,337.047 545.5,340.5C 543.784,340.629 542.117,340.962 540.5,341.5C 548.298,337.4 555.632,332.4 562.5,326.5C 563.452,324.955 563.785,323.288 563.5,321.5 Z"/></g>
<g><path style="opacity:0.204" fill="#faf0ba" d="M 143.5,334.5 C 150.476,335.232 157.476,335.565 164.5,335.5C 157.424,337.959 150.424,337.626 143.5,334.5 Z"/></g>
<g><path style="opacity:0.235" fill="#f8e798" d="M 453.5,335.5 C 455.989,335.241 457.656,336.241 458.5,338.5C 456.566,337.89 454.899,336.89 453.5,335.5 Z"/></g>
<g><path style="opacity:1" fill="#47411d" d="M 495.5,336.5 C 498.546,336.725 500.879,338.058 502.5,340.5C 502.167,340.5 501.833,340.5 501.5,340.5C 501.167,340.5 500.833,340.5 500.5,340.5C 498.833,339.167 497.167,337.833 495.5,336.5 Z"/></g>
<g><path style="opacity:0.008" fill="#858585" d="M 331.5,336.5 C 337.816,338.66 344.149,340.66 350.5,342.5C 343.54,342.182 337.207,340.182 331.5,336.5 Z"/></g>
<g><path style="opacity:0.306" fill="#bbb7b5" d="M 501.5,340.5 C 501.833,340.5 502.167,340.5 502.5,340.5C 503.167,341.167 503.833,341.833 504.5,342.5C 503.5,342.5 502.5,342.5 501.5,342.5C 501.5,341.833 501.5,341.167 501.5,340.5 Z"/></g>
<g><path style="opacity:0.871" fill="#4e4d4e" d="M 502.5,340.5 C 504.898,340.259 506.898,340.926 508.5,342.5C 507.167,342.5 505.833,342.5 504.5,342.5C 503.833,341.833 503.167,341.167 502.5,340.5 Z"/></g>
<g><path style="opacity:0.847" fill="#f3e588" d="M 500.5,340.5 C 500.833,340.5 501.167,340.5 501.5,340.5C 501.5,341.167 501.5,341.833 501.5,342.5C 499.5,342.833 497.5,343.167 495.5,343.5C 493.833,343.5 492.167,343.5 490.5,343.5C 493.677,342.257 497.01,341.257 500.5,340.5 Z"/></g>
<g><path style="opacity:0.831" fill="#545455" d="M 396.5,341.5 C 397.404,342.209 397.737,343.209 397.5,344.5C 390.313,344.825 383.313,344.491 376.5,343.5C 383.584,344.126 390.25,343.459 396.5,341.5 Z"/></g>
<g><path style="opacity:0.29" fill="#b2b2b3" d="M 504.5,342.5 C 505.833,342.5 507.167,342.5 508.5,342.5C 508.842,343.338 509.508,343.672 510.5,343.5C 510.5,343.833 510.5,344.167 510.5,344.5C 508.102,344.741 506.102,344.074 504.5,342.5 Z"/></g>
<g><path style="opacity:0.11" fill="#b8b9b9" d="M 545.5,340.5 C 541.31,343.25 536.644,344.917 531.5,345.5C 532.167,344.833 532.833,344.167 533.5,343.5C 535.965,343.233 538.299,342.566 540.5,341.5C 542.117,340.962 543.784,340.629 545.5,340.5 Z"/></g>
<g><path style="opacity:0.371" fill="#9d9d9e" d="M 396.5,338.5 C 398.326,340.455 398.826,342.788 398,345.5C 397.439,346.022 396.772,346.355 396,346.5C 382.521,345.626 369.021,344.792 355.5,344C 353.618,343.802 351.952,343.302 350.5,342.5C 359.152,343.146 367.818,343.479 376.5,343.5C 383.313,344.491 390.313,344.825 397.5,344.5C 397.737,343.209 397.404,342.209 396.5,341.5C 396.5,341.167 396.5,340.833 396.5,340.5C 396.5,339.833 396.5,339.167 396.5,338.5 Z"/></g>
<g><path style="opacity:0.261" fill="#faeeb8" d="M 489.5,343.5 C 489.833,343.5 490.167,343.5 490.5,343.5C 492.167,343.5 493.833,343.5 495.5,343.5C 491.258,344.968 486.758,345.634 482,345.5C 478.979,345.498 476.146,345.164 473.5,344.5C 479.026,344.821 484.36,344.488 489.5,343.5 Z"/></g>
<g><path style="opacity:0.708" fill="#606261" d="M 510.5,344.5 C 510.5,344.167 510.5,343.833 510.5,343.5C 518.182,344.594 525.849,344.594 533.5,343.5C 532.833,344.167 532.167,344.833 531.5,345.5C 524.798,345.664 518.131,345.331 511.5,344.5C 511.167,344.5 510.833,344.5 510.5,344.5 Z"/></g>
<g><path style="opacity:0.161" fill="#bec0bf" d="M 511.5,344.5 C 518.131,345.331 524.798,345.664 531.5,345.5C 528.854,346.164 526.021,346.498 523,346.5C 518.867,346.714 515.034,346.048 511.5,344.5 Z"/></g>
</svg>
